<?xml version="1.0" encoding="UTF-8" standalone="no"?>
<svg
   version="1.0"
   width="350.000000pt"
   height="122.000000pt"
   viewBox="0 0 350.000000 122.000000"
   preserveAspectRatio="xMidYMid meet"
   id="svg6"
   xmlns="http://www.w3.org/2000/svg"
   xmlns:svg="http://www.w3.org/2000/svg">
  <defs
     id="defs6" />
  <g
     transform="matrix(0.1,0,0,-0.1,0,122)"
     fill="#000000"
     stroke="none"
     id="g12"
     style="font-variation-settings:normal;display:inline;opacity:1;fill:#cccccc;fill-opacity:1;stroke:#cccccc;stroke-width:129.99999998;stroke-linecap:round;stroke-linejoin:round;stroke-miterlimit:4;stroke-dasharray:none;stroke-dashoffset:0;stroke-opacity:1;stop-color:#000000;stop-opacity:1;paint-order:normal">
    <path
       d="m 1307,940 c -102,-26 -188,-93 -234,-183 -38,-74 -44,-198 -13,-280 27,-73 100,-149 177,-185 50,-23 71,-27 153,-27 83,0 103,4 156,28 34,16 75,43 92,60 l 31,32 -45,38 -44,38 -44,-30 c -119,-82 -277,-47 -336,74 -33,68 -26,168 15,227 75,106 243,121 338,30 l 28,-26 45,46 46,45 -28,28 c -51,48 -145,86 -226,90 -40,3 -90,0 -111,-5 z"
       id="path7"
       style="font-variation-settings:normal;fill:#cccccc;fill-opacity:1;stroke:#cccccc;stroke-width:129.99999998;stroke-linecap:round;stroke-linejoin:round;stroke-miterlimit:4;stroke-dasharray:none;stroke-dashoffset:0;stroke-opacity:1;stop-color:#000000;stop-opacity:1;paint-order:normal" />
    <path
       d="M 480,605 V 270 h 65 64 l 3,128 3,127 77,3 76,3 66,-131 67,-130 h 75 75 l -72,136 c -67,127 -70,137 -53,147 11,6 35,27 56,47 104,103 54,281 -93,324 -39,12 -99,16 -231,16 H 480 Z m 391,186 c 20,-20 29,-39 29,-61 0,-22 -9,-41 -29,-61 -29,-29 -31,-29 -145,-29 H 610 v 90 90 h 116 c 114,0 116,0 145,-29 z"
       id="path8"
       style="font-variation-settings:normal;fill:#cccccc;fill-opacity:1;stroke:#cccccc;stroke-width:129.99999998;stroke-linecap:round;stroke-linejoin:round;stroke-miterlimit:4;stroke-dasharray:none;stroke-dashoffset:0;stroke-opacity:1;stop-color:#000000;stop-opacity:1;paint-order:normal" />
    <path
       d="M 1680,605 V 270 h 70 70 v 335 335 h -70 -70 z"
       id="path9"
       style="font-variation-settings:normal;fill:#cccccc;fill-opacity:1;stroke:#cccccc;stroke-width:129.99999998;stroke-linecap:round;stroke-linejoin:round;stroke-miterlimit:4;stroke-dasharray:none;stroke-dashoffset:0;stroke-opacity:1;stop-color:#000000;stop-opacity:1;paint-order:normal" />
    <path
       d="m 2170,880 v -60 h 115 115 V 545 270 h 70 70 v 275 275 h 110 110 v 60 60 h -295 -295 z"
       id="path10"
       style="font-variation-settings:normal;fill:#cccccc;fill-opacity:1;stroke:#cccccc;stroke-width:129.99999998;stroke-linecap:round;stroke-linejoin:round;stroke-miterlimit:4;stroke-dasharray:none;stroke-dashoffset:0;stroke-opacity:1;stop-color:#000000;stop-opacity:1;paint-order:normal" />
    <path
       d="m 2053,770 c -210,-42 -282,-307 -121,-445 153,-130 398,-52 438,139 38,185 -126,344 -317,306 z m 131,-129 c 89,-50 86,-195 -6,-251 -118,-72 -254,66 -192,196 19,41 33,53 81,69 42,15 73,11 117,-14 z"
       id="path11"
       style="font-variation-settings:normal;fill:#cccccc;fill-opacity:1;stroke:#cccccc;stroke-width:129.99999998;stroke-linecap:round;stroke-linejoin:round;stroke-miterlimit:4;stroke-dasharray:none;stroke-dashoffset:0;stroke-opacity:1;stop-color:#000000;stop-opacity:1;paint-order:normal" />
    <path
       d="m 2653,749 c -56,-27 -83,-72 -83,-136 0,-88 43,-121 194,-147 94,-16 116,-27 116,-57 0,-53 -129,-68 -216,-24 -27,14 -49,25 -50,25 0,0 -15,-20 -32,-44 l -32,-44 43,-21 c 140,-67 315,-48 377,40 32,44 36,106 11,146 -30,48 -60,63 -169,82 -108,19 -135,32 -130,65 7,49 102,57 192,17 l 45,-19 26,38 c 15,21 24,43 21,49 -4,5 -31,19 -62,30 -76,29 -193,29 -251,0 z"
       id="path12"
       style="font-variation-settings:normal;fill:#cccccc;fill-opacity:1;stroke:#cccccc;stroke-width:129.99999998;stroke-linecap:round;stroke-linejoin:round;stroke-miterlimit:4;stroke-dasharray:none;stroke-dashoffset:0;stroke-opacity:1;stop-color:#000000;stop-opacity:1;paint-order:normal" />
  </g>
  <g
     transform="matrix(0.1,0,0,-0.1,0,122)"
     fill="#000000"
     stroke="none"
     id="g6"
     style="font-variation-settings:normal;display:inline;opacity:1;vector-effect:none;fill:#000000;fill-opacity:1;stroke:none;stroke-width:1;stroke-linecap:butt;stroke-linejoin:miter;stroke-miterlimit:4;stroke-dasharray:none;stroke-dashoffset:0;stroke-opacity:1;-inkscape-stroke:none;stop-color:#000000;stop-opacity:1">
    <path
       d="m 1307,940 c -102,-26 -188,-93 -234,-183 -38,-74 -44,-198 -13,-280 27,-73 100,-149 177,-185 50,-23 71,-27 153,-27 83,0 103,4 156,28 34,16 75,43 92,60 l 31,32 -45,38 -44,38 -44,-30 c -119,-82 -277,-47 -336,74 -33,68 -26,168 15,227 75,106 243,121 338,30 l 28,-26 45,46 46,45 -28,28 c -51,48 -145,86 -226,90 -40,3 -90,0 -111,-5 z"
       id="path1"
       style="font-variation-settings:normal;vector-effect:none;fill:#000000;fill-opacity:1;stroke:none;stroke-width:1;stroke-linecap:butt;stroke-linejoin:miter;stroke-miterlimit:4;stroke-dasharray:none;stroke-dashoffset:0;stroke-opacity:1;-inkscape-stroke:none;stop-color:#000000;stop-opacity:1" />
    <path
       d="M 480,605 V 270 h 65 64 l 3,128 3,127 77,3 76,3 66,-131 67,-130 h 75 75 l -72,136 c -67,127 -70,137 -53,147 11,6 35,27 56,47 104,103 54,281 -93,324 -39,12 -99,16 -231,16 H 480 Z m 391,186 c 20,-20 29,-39 29,-61 0,-22 -9,-41 -29,-61 -29,-29 -31,-29 -145,-29 H 610 v 90 90 h 116 c 114,0 116,0 145,-29 z"
       id="path2"
       style="font-variation-settings:normal;vector-effect:none;fill:#000000;fill-opacity:1;stroke:none;stroke-width:1;stroke-linecap:butt;stroke-linejoin:miter;stroke-miterlimit:4;stroke-dasharray:none;stroke-dashoffset:0;stroke-opacity:1;-inkscape-stroke:none;stop-color:#000000;stop-opacity:1" />
    <path
       d="M 1680,605 V 270 h 70 70 v 335 335 h -70 -70 z"
       id="path3"
       style="font-variation-settings:normal;vector-effect:none;fill:#000000;fill-opacity:1;stroke:none;stroke-width:1;stroke-linecap:butt;stroke-linejoin:miter;stroke-miterlimit:4;stroke-dasharray:none;stroke-dashoffset:0;stroke-opacity:1;-inkscape-stroke:none;stop-color:#000000;stop-opacity:1" />
    <path
       d="m 2170,880 v -60 h 115 115 V 545 270 h 70 70 v 275 275 h 110 110 v 60 60 h -295 -295 z"
       id="path4"
       style="font-variation-settings:normal;vector-effect:none;fill:#000000;fill-opacity:1;stroke:none;stroke-width:1;stroke-linecap:butt;stroke-linejoin:miter;stroke-miterlimit:4;stroke-dasharray:none;stroke-dashoffset:0;stroke-opacity:1;-inkscape-stroke:none;stop-color:#000000;stop-opacity:1" />
    <path
       d="m 2053,770 c -210,-42 -282,-307 -121,-445 153,-130 398,-52 438,139 38,185 -126,344 -317,306 z m 131,-129 c 89,-50 86,-195 -6,-251 -118,-72 -254,66 -192,196 19,41 33,53 81,69 42,15 73,11 117,-14 z"
       id="path5"
       style="font-variation-settings:normal;vector-effect:none;fill:#000000;fill-opacity:1;stroke:none;stroke-width:1;stroke-linecap:butt;stroke-linejoin:miter;stroke-miterlimit:4;stroke-dasharray:none;stroke-dashoffset:0;stroke-opacity:1;-inkscape-stroke:none;stop-color:#000000;stop-opacity:1" />
    <path
       d="m 2653,749 c -56,-27 -83,-72 -83,-136 0,-88 43,-121 194,-147 94,-16 116,-27 116,-57 0,-53 -129,-68 -216,-24 -27,14 -49,25 -50,25 0,0 -15,-20 -32,-44 l -32,-44 43,-21 c 140,-67 315,-48 377,40 32,44 36,106 11,146 -30,48 -60,63 -169,82 -108,19 -135,32 -130,65 7,49 102,57 192,17 l 45,-19 26,38 c 15,21 24,43 21,49 -4,5 -31,19 -62,30 -76,29 -193,29 -251,0 z"
       id="path6"
       style="font-variation-settings:normal;vector-effect:none;fill:#000000;fill-opacity:1;stroke:none;stroke-width:1;stroke-linecap:butt;stroke-linejoin:miter;stroke-miterlimit:4;stroke-dasharray:none;stroke-dashoffset:0;stroke-opacity:1;-inkscape-stroke:none;stop-color:#000000;stop-opacity:1" />
  </g>
  <path
     style="font-variation-settings:normal;opacity:1;fill:#cccccc;fill-opacity:1;stroke:#cccccc;stroke-width:6.65205;stroke-linecap:round;stroke-linejoin:round;stroke-miterlimit:4;stroke-dasharray:none;stroke-dashoffset:0;stroke-opacity:1;paint-order:normal"
     d="M 90.186404,65.221842 V 62.13228 l 9.180378,0.115329 9.180378,0.11533 1.02482,0.959429 c 1.79154,1.677238 1.85709,2.121931 0.53476,3.627983 l -1.19502,1.361053 h -9.36266 -9.362656 z"
     id="path403"
     transform="scale(0.75)" />
  <path
     style="font-variation-settings:normal;opacity:1;fill:#cccccc;fill-opacity:1;stroke:#cccccc;stroke-width:6.65205;stroke-linecap:round;stroke-linejoin:round;stroke-miterlimit:4;stroke-dasharray:none;stroke-dashoffset:0;stroke-opacity:1;paint-order:normal"
     d="m 183.2511,102.05185 c -8.15283,-1.01909 -14.78868,-6.749387 -16.49289,-14.242202 -1.20853,-5.313523 -0.36669,-12.774492 1.87154,-16.586885 3.20959,-5.466917 10.00689,-9.069692 17.30775,-9.173634 6.5701,-0.09354 10.45739,1.50691 16.42759,6.763443 2.60824,2.296462 4.61827,3.752845 5.57516,4.039537 2.02573,0.606924 4.41682,0.564163 6.02493,-0.107746 l 1.33087,-0.556075 v 10.706449 10.706449 l -1.33087,-0.556076 c -1.68973,-0.706015 -4.83801,-0.714803 -6.50532,-0.01816 -0.70808,0.295855 -3.15233,1.789139 -5.43167,3.318411 -7.45059,4.998799 -12.40154,6.503429 -18.77709,5.706489 z"
     id="path404"
     transform="scale(0.75)" />
  <path
     style="font-variation-settings:normal;opacity:1;fill:#cccccc;fill-opacity:1;stroke:#cccccc;stroke-width:6.65205;stroke-linecap:round;stroke-linejoin:round;stroke-miterlimit:4;stroke-dasharray:none;stroke-dashoffset:0;stroke-opacity:1;paint-order:normal"
     d="m 278.04276,103.66056 c -1.87226,-0.86419 -4.20372,-3.15673 -5.31171,-5.22306 -0.66613,-1.242295 -0.82366,-2.193871 -0.82589,-4.989035 -0.003,-3.198248 0.0932,-3.630816 1.29294,-5.843069 1.37323,-2.532098 2.18925,-3.043493 6.86572,-4.302738 3.04432,-0.819748 7.7397,1.364366 9.54105,4.438128 2.16241,3.689874 1.53317,9.716196 -1.38376,13.252544 -2.47591,3.00168 -6.92681,4.16804 -10.17835,2.66723 z"
     id="path405"
     transform="scale(0.75)" />
</svg>
